<?xml version="1.0" encoding="UTF-8" standalone="no"?>
<svg
   xmlns:dc="http://purl.org/dc/elements/1.1/"
   xmlns:cc="http://creativecommons.org/ns#"
   xmlns:rdf="http://www.w3.org/1999/02/22-rdf-syntax-ns#"
   xmlns:svg="http://www.w3.org/2000/svg"
   xmlns="http://www.w3.org/2000/svg"
   viewBox="0 0 514.66669 218.66667"
   height="218.66667"
   width="514.66669"
   xml:space="preserve"
   id="svg2"
   version="1.1"><metadata
     id="metadata8"><rdf:RDF><cc:Work
         rdf:about=""><dc:format>image/svg+xml</dc:format><dc:type
           rdf:resource="http://purl.org/dc/dcmitype/StillImage" /></cc:Work></rdf:RDF></metadata><defs
     id="defs6" /><g
     transform="matrix(1.3333333,0,0,-1.3333333,0,218.66667)"
     id="g10"><g
       transform="scale(0.1)"
       id="g12"><path
         id="path14"
         style="fill:#87c23f;fill-opacity:1;fill-rule:evenodd;stroke:none"
         d="m 2358.63,1580 v -367.5 h 60 V 1640 h -427.5 v -60 h 367.5" /><path
         id="path16"
         style="fill:#e65c23;fill-opacity:1;fill-rule:evenodd;stroke:none"
         d="m 1488.63,1580 h 367.5 v 60 h -427.5 v -427.5 h 60 V 1580" /><path
         id="path18"
         style="fill:#45c2e6;fill-opacity:1;fill-rule:evenodd;stroke:none"
         d="m 2358.63,710 h -367.5 v -60 h 427.5 v 427.5 h -60 V 710" /><path
         id="path20"
         style="fill:#68c7b3;fill-opacity:1;fill-rule:evenodd;stroke:none"
         d="m 1488.63,710 v 367.5 h -60 V 650 h 427.5 v 60 h -367.5" /><path
         id="path22"
         style="fill:#fab017;fill-opacity:1;fill-rule:evenodd;stroke:none"
         d="m 1965.66,1377.27 c 48.99,0 94.22,-14.57 135.67,-43.75 2.07,-4.11 3.08,-7.27 3.08,-9.57 v -2.74 c 0,-9.33 -6.25,-14.69 -18.79,-16.05 h 1.02 l -43.75,22.57 c -31.44,10 -57.19,15.04 -77.23,15.04 -64.06,0 -119.41,-29.29 -166.13,-87.85 -23.24,-39.22 -34.84,-77.38 -34.84,-114.49 0,-75 35.08,-134.34 105.27,-178.09 31.21,-16.168 62.31,-24.25 93.28,-24.25 h 3.79 c 39.42,0 78.48,12.07 117.23,36.211 h 4.45 c 10.47,-2.27 15.7,-7.192 15.7,-14.692 v -3.75 c 0,-13.91 -26.75,-28.828 -80.31,-44.808 -17.3,-5 -35.43,-7.5 -54.33,-7.5 h -6.53 c -77.93,0 -143.2,36.219 -195.82,108.679 -24.84,41.72 -37.26,84.45 -37.26,128.2 0,82.03 37.46,148.91 112.46,200.62 39.84,24.15 80.86,36.22 123.04,36.22 z" /><path
         id="path24"
         style="fill:#fbb217;fill-opacity:1;fill-rule:nonzero;stroke:none"
         d="m 124.57,579.84 c 25.821,0 49.731,-7.731 71.719,-23.121 1.012,-2.11 1.563,-3.75 1.563,-5 v -1.41 c 0,-5 -3.364,-7.809 -10,-8.43 h 0.628 l -23.128,11.871 c -16.68,5.309 -30.274,7.969 -40.782,7.969 -33.8708,0 -63.1208,-15.469 -87.8083,-46.41 -12.3125,-20.739 -18.4414,-40.93 -18.4414,-60.618 0,-39.609 18.5195,-70.941 55.6289,-94.07 16.4414,-8.551 32.8518,-12.812 49.2108,-12.812 h 2.039 c 20.821,0 41.481,6.332 62.031,19.07 h 2.34 c 5.508,-1.18 8.282,-3.719 8.282,-7.66 v -2.028 c 0,-7.421 -14.18,-15.312 -42.5,-23.75 -9.18,-2.621 -18.75,-3.91 -28.75,-3.91 h -3.442 c -41.1717,0 -75.6209,19.141 -103.4295,57.5 -13.12894,21.949 -19.6914375,44.528 -19.6914375,67.66 0,43.321 19.7617375,78.668 59.3711375,106.09 21.1406,12.699 42.8598,19.059 65.1598,19.059 z m 206.09,-74.531 c 33.211,0 59.539,-16.329 78.91,-48.899 5.942,-13.051 8.91,-26.719 8.91,-41.101 v -78.278 c 0,-4.062 -2.929,-6.562 -8.75,-7.5 h -0.32 c -3.75,0 -6.519,2.188 -8.281,6.559 v -0.469 l 0.633,16.879 v 11.41 C 377.699,340.98 354.801,329.531 333.16,329.531 h -5.308 c -29.692,0 -54.493,15 -74.372,45 -7.191,14.258 -10.781,28.75 -10.781,43.438 0,32.691 16.012,58.633 48.121,77.812 13.629,6.328 26.91,9.528 39.84,9.528 z M 260.039,418.75 v -2.031 c 0,-28.668 14.371,-50.27 43.121,-64.84 9.262,-3.359 17.5,-5 24.692,-5 h 5.308 c 24.07,0 43.828,11.949 59.379,35.93 5.699,11.332 8.59,22.191 8.59,32.5 v 2.66 c 0,27.691 -13.668,48.832 -40.93,63.441 -9.609,4.371 -19.461,6.559 -29.539,6.559 h -0.781 c -29.18,0 -51.051,-15.117 -65.617,-45.309 -2.813,-9.379 -4.223,-17.351 -4.223,-23.91 z" /><path
         id="path26"
         style="fill:#fbb217;fill-opacity:1;fill-rule:nonzero;stroke:none"
         d="m 470.59,578.281 h 2.18 c 5.511,-1.051 8.281,-3.121 8.281,-6.25 v -225 h 18.91 c 3.437,0 5.777,-3.051 7.027,-9.062 v 0.472 c -1.047,-5.941 -3.898,-8.91 -8.59,-8.91 h -26.25 c -4.488,0 -7.347,3.129 -8.597,9.379 v 228.899 c 0.711,6.961 3.051,10.472 7.039,10.472 z" /><path
         id="path28"
         style="fill:#fbb217;fill-opacity:1;fill-rule:nonzero;stroke:none"
         d="m 630.699,505.621 c 33.949,0 60.321,-16.172 79.071,-48.43 6.441,-12.5 9.679,-26.171 9.679,-40.941 v -3.129 c -1.168,-6.242 -3.98,-9.371 -8.429,-9.371 H 562.578 c 6.762,-23.051 19.57,-39.648 38.442,-49.84 11.011,-4.18 21.32,-6.25 30.929,-6.25 11.25,0 23.602,3.32 37.031,10 h 2.5 c 5.321,-1.058 7.969,-3.601 7.969,-7.66 v -2.031 c 0,-8.438 -14.801,-14.61 -44.371,-18.438 h -4.379 c -31.558,0 -56.949,14.77 -76.09,44.379 -7.621,13.82 -11.41,28.43 -11.41,43.75 0,32.18 15.242,57.852 45.781,77.031 14.77,7.258 28.68,10.93 41.719,10.93 z M 561.328,421.09 h 139.531 c 0,13.211 -5.781,27.742 -17.339,43.601 -15.942,14.879 -31.719,22.34 -47.348,22.34 h -7.5 c -23.242,0 -42.301,-11.332 -57.192,-33.91 -5.23,-9.062 -8.589,-19.762 -10.152,-32.031 z" /><path
         id="path30"
         style="fill:#fbb217;fill-opacity:1;fill-rule:nonzero;stroke:none"
         d="m 769.691,579.219 h 0.778 c 5.621,-1.25 8.441,-3.668 8.441,-7.188 V 472.66 c 24.059,23.199 47.852,34.84 71.399,34.84 22.812,0 43.519,-8.711 62.191,-26.09 17.809,-18.68 26.719,-39.609 26.719,-62.82 0,-33.36 -15.86,-59.61 -47.5,-78.75 -13.559,-6.871 -26.68,-10.309 -39.379,-10.309 h -5.461 c -23.758,0 -46.02,11.25 -66.719,33.75 -12.621,16.758 -18.91,36.758 -18.91,60 v 148.75 c 0,3.52 2.809,5.938 8.441,7.188 z m 9.219,-158.598 v -3.43 c 0,-29.812 15.5,-51.961 46.559,-66.41 8.441,-2.5 16.011,-3.75 22.812,-3.75 h 4.059 c 29.07,0 50.98,15.508 65.781,46.559 2.391,9.57 3.598,16.922 3.598,22.031 v 4.219 c 0,29.57 -15.86,51.762 -47.5,66.57 -9.61,2.379 -17.11,3.59 -22.5,3.59 h -2.809 c -28.988,0 -50.859,-15.27 -65.629,-45.781 -2.929,-8.75 -4.371,-16.637 -4.371,-23.598 z" /><path
         id="path32"
         style="fill:#fbb217;fill-opacity:1;fill-rule:nonzero;stroke:none"
         d="m 1077.19,579.691 h 56.87 c 22.5,0 40.98,-11.992 55.47,-35.941 4.57,-9.18 6.88,-18.75 6.88,-28.75 v -2.66 c 0,-22.301 -10.9,-40.539 -32.66,-54.68 l -10.78,-5.629 c 42.69,-73.441 64.06,-110.551 64.06,-111.25 v -3.441 c 0,-4.289 -2.97,-6.871 -8.91,-7.809 h -0.31 c -4.61,0 -10.11,6.949 -16.56,20.938 l -57.5,98.121 h -45.94 V 337.34 c 0,-4.289 -2.97,-6.871 -8.9,-7.809 h -0.32 c -4.49,0 -7.3,3.168 -8.43,9.528 V 568.91 c 0.7,7.18 3.04,10.781 7.03,10.781 z m 10.62,-16.882 V 466.09 h 43.28 c 23.83,0 39.53,12.82 47.03,38.441 l 0.79,6.25 v 5.778 c 0,18.953 -10.59,33.32 -31.72,43.132 -6.06,2.071 -15,3.118 -26.88,3.118 z" /><path
         id="path34"
         style="fill:#fbb217;fill-opacity:1;fill-rule:nonzero;stroke:none"
         d="m 1259.92,506.09 c 5.94,-1.481 8.91,-3.86 8.91,-7.18 v -72.351 c 0,-32.727 9.41,-54.758 28.28,-66.09 11.95,-9.059 25.31,-13.59 40,-13.59 28.2,0 49.41,14.531 63.59,43.59 3.01,9.371 4.53,18.672 4.53,27.972 v 78.118 c 1.14,6.332 3.95,9.531 8.44,9.531 5.94,-1.36 8.91,-4.18 8.91,-8.43 V 336.559 c 0,-3.547 -2.93,-5.899 -8.75,-7.028 -5.74,1.02 -8.6,3.789 -8.6,8.278 v 17.351 h -7.03 c -18.86,-17.109 -38.55,-25.629 -59.06,-25.629 h -4.69 c -26.68,0 -49.8,13.129 -69.37,39.379 -9.06,13.942 -13.6,31.32 -13.6,52.18 v 73.75 c 0.82,7.5 3.64,11.25 8.44,11.25 z" /><path
         id="path36"
         style="fill:#fbb217;fill-opacity:1;fill-rule:nonzero;stroke:none"
         d="m 1529.38,504.219 c 29.25,0 52.1,-13.047 68.59,-39.059 l 0.31,-3.91 v -0.629 c 0,-4.371 -3.08,-7.101 -9.22,-8.121 -3.98,0 -8.67,4.57 -14.06,13.75 -13.55,13.129 -28.75,19.691 -45.62,19.691 -22.31,0 -40,-10.781 -53.13,-32.351 l -0.78,-4.68 c 0,-8.871 7.97,-14.031 23.91,-15.469 50.93,-12.312 78.51,-19.222 82.81,-20.781 11.25,-7.5 16.87,-16.961 16.87,-28.281 v -0.469 c 0,-16.801 -12.77,-32.461 -38.28,-47.031 -10.94,-4.93 -22.77,-7.348 -35.47,-7.348 -25.54,0 -47.26,12.028 -65.15,36.09 -1.25,1.961 -1.88,3.598 -1.88,4.848 v 4.062 c 0,3.828 3.48,6.129 10.47,6.879 2.58,0 7.42,-5.16 14.53,-15.469 13.01,-11.992 27.97,-17.972 44.84,-17.972 20.32,0 37.27,9.73 50.94,29.222 l 1.56,5.309 v 1.41 c 0,8.43 -5.27,13.199 -15.78,14.371 -58.86,13.129 -89.8,21.02 -92.81,23.75 -10,7.578 -15,16.719 -15,27.348 0,15.07 11.49,30 34.53,44.68 12.58,6.761 25.2,10.16 37.82,10.16 z" /><path
         id="path38"
         style="fill:#fbb217;fill-opacity:1;fill-rule:nonzero;stroke:none"
         d="m 1648.63,578.91 h 2.03 c 5.63,-1.18 8.44,-3.289 8.44,-6.41 v -93.281 c 21.56,18.75 41.72,28.121 60.47,28.121 28.63,0 51.56,-13.668 68.75,-40.93 6.56,-11.879 9.84,-23.129 9.84,-33.75 v -95.32 c 0,-4.289 -2.96,-6.871 -8.9,-7.809 h -0.16 c -4.18,0 -6.99,2.739 -8.44,8.278 v 90.941 c 0,26.559 -13.75,45.66 -41.25,57.34 -6.56,1.961 -13.2,2.969 -19.84,2.969 -27.42,0 -46.64,-14.489 -57.66,-43.438 -1.87,-6.242 -2.81,-16.242 -2.81,-30 V 337.34 c 0,-4.289 -2.97,-6.871 -8.9,-7.809 h -0.16 c -4.3,0 -7.15,2.739 -8.59,8.278 V 570 c 1.25,5.941 3.63,8.91 7.18,8.91 z" /><path
         id="path40"
         style="fill:#fbb217;fill-opacity:1;fill-rule:nonzero;stroke:none"
         d="m 1936.91,579.84 h 2.82 c 5.19,0 8.79,-5.699 10.78,-17.031 l 51.56,-179.219 h 8.13 c 35.7,125.941 54.53,190.359 56.4,193.289 1.95,1.953 3.95,2.961 5.94,2.961 h 2.03 c 5.51,0 9.3,-7.031 11.41,-21.09 3.32,-9.18 20.31,-67.809 50.93,-175.941 h 7.5 l 56.25,193.281 c 1.96,2.5 3.79,3.75 5.47,3.75 h 2.35 c 5.39,-1.051 8.12,-3.121 8.12,-6.25 v -2.649 l -68.75,-238.132 c -2.3,-2.188 -4.61,-3.278 -6.87,-3.278 h -0.63 c -5.94,0 -9.92,7.231 -11.87,21.719 -29.81,100.941 -46.84,159.879 -51.1,176.871 h -7.34 l -56.25,-194.84 c -1.99,-2.5 -4.34,-3.75 -7.03,-3.75 h -2.66 c -4.8,0 -8.36,7.418 -10.62,22.348 -39.18,133.32 -60.32,206.48 -63.44,219.531 1.25,5.621 3.51,8.43 6.87,8.43 z" /><path
         id="path42"
         style="fill:#fbb217;fill-opacity:1;fill-rule:nonzero;stroke:none"
         d="m 2337.62,505.621 c 33.94,0 60.31,-16.172 79.06,-48.43 6.44,-12.5 9.69,-26.171 9.69,-40.941 v -3.129 c -1.17,-6.242 -3.99,-9.371 -8.44,-9.371 h -148.44 c 6.76,-23.051 19.57,-39.648 38.44,-49.84 11.02,-4.18 21.33,-6.25 30.94,-6.25 11.25,0 23.59,3.32 37.03,10 h 2.5 c 5.31,-1.058 7.97,-3.601 7.97,-7.66 v -2.031 c 0,-8.438 -14.81,-14.61 -44.38,-18.438 h -4.37 c -31.57,0 -56.96,14.77 -76.1,44.379 -7.61,13.82 -11.4,28.43 -11.4,43.75 0,32.18 15.23,57.852 45.78,77.031 14.76,7.258 28.67,10.93 41.72,10.93 z m -69.38,-84.531 h 139.53 c 0,13.211 -5.78,27.742 -17.34,43.601 -15.94,14.879 -31.72,22.34 -47.34,22.34 h -7.5 c -23.25,0 -42.31,-11.332 -57.19,-33.91 -5.24,-9.062 -8.6,-19.762 -10.16,-32.031 z" /><path
         id="path44"
         style="fill:#fbb217;fill-opacity:1;fill-rule:nonzero;stroke:none"
         d="m 2476.6,579.219 h 0.78 c 5.63,-1.25 8.44,-3.668 8.44,-7.188 V 472.66 c 24.06,23.199 47.85,34.84 71.41,34.84 22.81,0 43.51,-8.711 62.18,-26.09 17.82,-18.68 26.72,-39.609 26.72,-62.82 0,-33.36 -15.86,-59.61 -47.5,-78.75 -13.55,-6.871 -26.68,-10.309 -39.37,-10.309 h -5.47 c -23.75,0 -46.02,11.25 -66.72,33.75 -12.62,16.758 -18.91,36.758 -18.91,60 v 148.75 c 0,3.52 2.82,5.938 8.44,7.188 z m 9.22,-158.598 v -3.43 c 0,-29.812 15.51,-51.961 46.56,-66.41 8.44,-2.5 16.02,-3.75 22.82,-3.75 h 4.06 c 29.06,0 50.97,15.508 65.78,46.559 2.38,9.57 3.59,16.922 3.59,22.031 v 4.219 c 0,29.57 -15.86,51.762 -47.5,66.57 -9.61,2.379 -17.11,3.59 -22.5,3.59 h -2.81 c -28.98,0 -50.86,-15.27 -65.62,-45.781 -2.93,-8.75 -4.38,-16.637 -4.38,-23.598 z" /><path
         id="path46"
         style="fill:#fbb217;fill-opacity:1;fill-rule:nonzero;stroke:none"
         d="m 2792.38,579.691 -1.72,0.469 h 35.63 l 7.66,0.621 c 37.26,0 69.84,-16.371 97.65,-49.062 17.58,-22.93 26.41,-48.91 26.41,-77.969 0,-39.918 -17.66,-73.59 -52.97,-101.09 -22.31,-15.43 -45.86,-23.129 -70.63,-23.129 h -46.25 c -5.86,1.02 -8.75,3.828 -8.75,8.438 V 571.25 c 0.82,5.941 5.16,8.91 12.97,8.91 z m 4.69,-16.57 v -215.93 h 33.91 c 45.31,0 78.9,21.911 100.78,65.778 5.7,14.883 8.59,29.14 8.59,42.812 0,32.891 -14.49,61.449 -43.44,85.629 -18.04,14.449 -44.61,21.711 -79.68,21.711 z" /><path
         id="path48"
         style="fill:#fbb217;fill-opacity:1;fill-rule:nonzero;stroke:none"
         d="m 3079.06,505.621 c 33.95,0 60.32,-16.172 79.06,-48.43 6.45,-12.5 9.69,-26.171 9.69,-40.941 v -3.129 c -1.17,-6.242 -3.98,-9.371 -8.43,-9.371 h -148.44 c 6.76,-23.051 19.57,-39.648 38.44,-49.84 11.01,-4.18 21.32,-6.25 30.93,-6.25 11.25,0 23.6,3.32 37.03,10 h 2.5 c 5.32,-1.058 7.97,-3.601 7.97,-7.66 v -2.031 c 0,-8.438 -14.8,-14.61 -44.37,-18.438 h -4.38 c -31.56,0 -56.95,14.77 -76.09,44.379 -7.62,13.82 -11.41,28.43 -11.41,43.75 0,32.18 15.24,57.852 45.78,77.031 14.77,7.258 28.68,10.93 41.72,10.93 z m -69.37,-84.531 h 139.53 c 0,13.211 -5.78,27.742 -17.34,43.601 -15.94,14.879 -31.72,22.34 -47.35,22.34 h -7.5 c -23.24,0 -42.3,-11.332 -57.19,-33.91 -5.23,-9.062 -8.59,-19.762 -10.15,-32.031 z" /><path
         id="path50"
         style="fill:#fbb217;fill-opacity:1;fill-rule:nonzero;stroke:none"
         d="m 3272.42,504.219 c 29.26,0 52.11,-13.047 68.6,-39.059 l 0.31,-3.91 v -0.629 c 0,-4.371 -3.09,-7.101 -9.22,-8.121 -3.99,0 -8.67,4.57 -14.06,13.75 -13.56,13.129 -28.75,19.691 -45.63,19.691 -22.3,0 -40,-10.781 -53.12,-32.351 l -0.78,-4.68 c 0,-8.871 7.96,-14.031 23.9,-15.469 50.94,-12.312 78.52,-19.222 82.81,-20.781 11.25,-7.5 16.88,-16.961 16.88,-28.281 v -0.469 c 0,-16.801 -12.77,-32.461 -38.28,-47.031 -10.94,-4.93 -22.78,-7.348 -35.47,-7.348 -25.55,0 -47.27,12.028 -65.16,36.09 -1.25,1.961 -1.87,3.598 -1.87,4.848 v 4.062 c 0,3.828 3.47,6.129 10.47,6.879 2.58,0 7.42,-5.16 14.53,-15.469 13.01,-11.992 27.97,-17.972 44.84,-17.972 20.31,0 37.27,9.73 50.94,29.222 l 1.56,5.309 v 1.41 c 0,8.43 -5.27,13.199 -15.78,14.371 -58.87,13.129 -89.8,21.02 -92.81,23.75 -10,7.578 -15,16.719 -15,27.348 0,15.07 11.48,30 34.53,44.68 12.58,6.761 25.19,10.16 37.81,10.16 z" /><path
         id="path52"
         style="fill:#fbb217;fill-opacity:1;fill-rule:nonzero;stroke:none"
         d="m 3398.24,552.809 c 6.02,-1.559 9.06,-3.899 9.06,-7.028 v -3.902 c 0,-3.758 -3.39,-6.18 -10.15,-7.188 -3.44,0 -5.86,3.008 -7.19,9.059 1.13,6.02 3.91,9.059 8.28,9.059 z m 0,-46.25 c 6.02,-1.559 9.06,-3.899 9.06,-7.028 V 337.34 c 0,-4.289 -2.96,-6.871 -8.9,-7.809 h -0.31 c -4.3,0 -7.04,3.129 -8.29,9.379 v 156.399 c 0.82,7.5 3.64,11.25 8.44,11.25 z" /><path
         id="path54"
         style="fill:#fbb217;fill-opacity:1;fill-rule:nonzero;stroke:none"
         d="m 3543.95,505 c 25.93,0 48.43,-10.859 67.5,-32.5 13.2,-18.121 19.84,-35.16 19.84,-51.09 l -0.63,-22.66 v -81.09 c 0,-13.75 -11.01,-29.109 -32.96,-46.101 -17.11,-11.129 -35,-16.719 -53.75,-16.719 -32.11,0 -58.6,14.379 -79.54,43.129 -3.55,5.742 -5.31,9.332 -5.31,10.781 v 2.031 c 0,3.438 2.7,5.778 8.13,7.028 h 1.56 c 3.94,0 7.73,-4.879 11.41,-14.688 17.26,-21.641 38.51,-32.5 63.75,-32.5 30.31,0 53.2,14.027 68.75,42.039 l 1.56,9.84 v 40.781 C 3590.08,341.09 3567.27,330 3545.82,330 h -5.31 c -23.44,0 -45.28,11.09 -65.47,33.281 -12.42,17.5 -18.59,35.551 -18.59,54.219 0,28.441 12.57,52.27 37.81,71.559 16.01,10.632 32.58,15.941 49.69,15.941 z m -70.32,-85.469 v -3.281 c 0,-29.301 15.32,-51.02 45.94,-65.16 8.2,-2.61 15.66,-3.899 22.34,-3.899 h 3.91 c 28.75,0 50.39,15.309 65,45.93 2.27,9.258 3.44,16.488 3.44,21.719 v 4.07 c 0,29.141 -15.59,50.969 -46.72,65.469 -9.61,2.262 -17.03,3.43 -22.34,3.43 h -2.5 c -28.75,0 -50.32,-15.079 -64.69,-45.149 -2.93,-8.441 -4.38,-16.18 -4.38,-23.129 z" /><path
         id="path56"
         style="fill:#fbb217;fill-opacity:1;fill-rule:nonzero;stroke:none"
         d="m 3690.31,505.309 c 5.82,-1.477 8.75,-3.829 8.75,-7.028 v -25 c 23.75,21.328 46.56,32.028 68.44,32.028 24.14,0 45.55,-10.079 64.22,-30.149 13.63,-16.879 20.47,-34.539 20.47,-52.969 V 336.41 c 0,-3.441 -2.93,-5.75 -8.75,-6.879 -5.74,1.02 -8.6,3.789 -8.6,8.278 v 75.472 c 0,35.938 -15.7,59.688 -47.03,71.25 -7.61,1.879 -14.37,2.809 -20.31,2.809 h -1.88 c -26.24,0 -46.52,-13.508 -60.78,-40.461 -3.86,-8.359 -5.78,-21.328 -5.78,-38.91 v -70.938 c 0,-4.062 -2.89,-6.562 -8.59,-7.5 H 3690 c -4.3,0 -7.03,3.129 -8.28,9.379 v 155.149 c 0.82,7.5 3.67,11.25 8.59,11.25 z" /><path
         id="path58"
         style="fill:#46c3e6;fill-opacity:1;fill-rule:nonzero;stroke:none"
         d="m 578.629,45 v 96.41 c 0,10.621 0.32,20.86 0.941,30.781 -3.359,-12.312 -6.332,-21.882 -8.91,-28.75 L 533.32,45 h -13.75 l -37.808,98.441 -5.782,17.5 -3.441,11.25 0.313,-11.41 0.468,-19.371 V 45 h -17.5 v 144.531 h 25.782 L 520.039,89.3789 c 1.332,-4.0703 2.66,-8.4375 3.91,-13.1289 1.25,-4.6094 2.071,-7.8906 2.5,-9.8398 0.621,2.6914 1.75,6.789 3.43,12.3398 1.762,5.6289 2.973,9.1406 3.601,10.6289 l 37.809,100.1521 h 25 V 45 Z m 143.09,55.621 c 0,-19.4921 -4.297,-33.9804 -12.809,-43.4296 -8.558,-9.4922 -20.941,-14.2226 -37.191,-14.2226 -16.25,0 -28.559,4.9218 -36.879,14.8398 -8.238,9.8906 -12.34,24.1406 -12.34,42.8124 0,38.207 16.602,57.348 49.84,57.348 16.879,0 29.301,-4.688 37.351,-14.059 8.008,-9.301 12.028,-23.711 12.028,-43.289 z m -19.379,0 c 0,15.32 -2.301,26.41 -6.871,33.289 -4.489,6.949 -12.11,10.469 -22.809,10.469 -10.859,0 -18.711,-3.559 -23.601,-10.629 -4.797,-7.109 -7.18,-18.129 -7.18,-33.129 0,-14.6796 2.383,-25.7421 7.18,-33.121 4.769,-7.3008 12.23,-10.9414 22.351,-10.9414 11.129,0 19.059,3.5195 23.75,10.6328 4.762,7.1875 7.18,18.3203 7.18,33.4296 z" /><path
         id="path60"
         style="fill:#46c3e6;fill-opacity:1;fill-rule:nonzero;stroke:none"
         d="m 814.879,62.8086 c -3.43,-7.1094 -7.969,-12.1875 -13.59,-15.3086 -5.629,-3.0117 -12.617,-4.5312 -20.937,-4.5312 -14.063,0 -24.454,4.6914 -31.09,14.0625 -6.563,9.4492 -9.852,23.789 -9.852,42.9687 0,38.629 13.641,57.969 40.942,57.969 8.32,0 15.308,-1.559 20.937,-4.688 5.621,-3.051 10.16,-7.89 13.59,-14.531 h 0.16 l -0.16,12.34 v 46.101 H 833.32 V 67.8086 c 0,-11.5586 0.2,-19.1797 0.629,-22.8086 h -17.66 c -0.238,1.1289 -0.469,3.6719 -0.777,7.6602 -0.242,3.9414 -0.313,7.3398 -0.313,10.1484 z m -56.09,37.8124 c 0,-15.5429 2.031,-26.6718 6.09,-33.4296 4.141,-6.6797 10.859,-10 20.16,-10 10.391,0 17.973,3.5899 22.66,10.7774 4.762,7.2617 7.18,18.5898 7.18,33.9102 0,14.68 -2.418,25.391 -7.18,32.18 -4.687,6.882 -12.187,10.32 -22.5,10.32 -9.301,0 -16.019,-3.438 -20.16,-10.32 -4.18,-6.868 -6.25,-18.039 -6.25,-33.438 z" /><path
         id="path62"
         style="fill:#46c3e6;fill-opacity:1;fill-rule:nonzero;stroke:none"
         d="m 875.82,96.5586 c 0,-12.7305 2.578,-22.5781 7.809,-29.5273 5.32,-6.8711 13.012,-10.3125 23.133,-10.3125 8.008,0 14.41,1.6015 19.218,4.8398 4.879,3.2109 8.161,7.2695 9.84,12.1914 l 16.25,-4.5312 c -6.679,-17.5 -21.8,-26.25 -45.308,-26.25 -16.371,0 -28.871,4.8828 -37.5,14.6914 -8.563,9.7617 -12.813,24.289 -12.813,43.5898 0,18.32 4.25,32.34 12.813,42.031 8.629,9.77 20.937,14.688 36.867,14.688 32.582,0 48.91,-19.649 48.91,-58.9104 v -2.5 z m 60.16,14.2224 c -1.058,11.641 -4.07,20.16 -9.07,25.469 -4.922,5.391 -11.949,8.129 -21.09,8.129 -8.98,0 -16.09,-3.051 -21.41,-9.07 -5.23,-5.93 -8.039,-14.137 -8.43,-24.528 z" /><path
         id="path64"
         style="fill:#46c3e6;fill-opacity:1;fill-rule:nonzero;stroke:none"
         d="m 978.98,45 v 85.16 c 0,7.809 -0.23,16.399 -0.621,25.781 h 17.5 c 0.512,-12.621 0.782,-20.16 0.782,-22.66 h 0.468 c 2.891,9.449 6.251,15.938 10.001,19.379 3.83,3.512 9.26,5.309 16.25,5.309 2.5,0 5,-0.309 7.5,-0.938 V 140 c -2.42,0.699 -5.7,1.09 -9.84,1.09 -7.62,0 -13.44,-3.36 -17.5,-10 -4.071,-6.559 -6.098,-16.012 -6.098,-28.281 V 45 Z" /><path
         id="path66"
         style="fill:#46c3e6;fill-opacity:1;fill-rule:nonzero;stroke:none"
         d="m 1119.1,45 v 70.309 c 0,7.269 -0.74,12.972 -2.19,17.031 -1.36,4.07 -3.67,6.961 -6.87,8.75 -3.13,1.762 -7.74,2.66 -13.75,2.66 -8.87,0 -15.9,-3.09 -21.09,-9.219 -5.12,-6.051 -7.66,-14.492 -7.66,-25.312 V 45 h -18.44 v 87.191 c 0,13.008 -0.23,20.93 -0.62,23.75 h 17.5 c 0,-0.32 0.04,-1.25 0.15,-2.82 0.08,-1.48 0.2,-3.199 0.32,-5.152 0.07,-1.879 0.19,-5.547 0.31,-10.938 h 0.31 c 4.26,7.578 9.14,12.969 14.69,16.09 5.62,3.207 12.54,4.848 20.78,4.848 12.19,0 21.09,-3.047 26.72,-9.059 5.62,-6.058 8.44,-16.058 8.44,-30 V 45 Z" /><path
         id="path68"
         style="fill:#46c3e6;fill-opacity:1;fill-rule:nonzero;stroke:none"
         d="m 1170.7,45 h 20 v 22.5 h -20 z" /><path
         id="path70"
         style="fill:#46c3e6;fill-opacity:1;fill-rule:nonzero;stroke:none"
         d="m 1285.16,45 v 144.531 h 109.68 v -16.09 h -90 v -46.25 h 83.75 V 111.41 h -83.75 V 60.9414 h 94.22 V 45 Z" /><path
         id="path72"
         style="fill:#46c3e6;fill-opacity:1;fill-rule:nonzero;stroke:none"
         d="m 1492.77,45 v 70.309 c 0,7.269 -0.74,12.972 -2.18,17.031 -1.37,4.07 -3.68,6.961 -6.88,8.75 -3.12,1.762 -7.73,2.66 -13.75,2.66 -8.87,0 -15.9,-3.09 -21.09,-9.219 -5.12,-6.051 -7.66,-14.492 -7.66,-25.312 V 45 h -18.44 v 87.191 c 0,13.008 -0.23,20.93 -0.62,23.75 h 17.5 c 0,-0.32 0.04,-1.25 0.15,-2.82 0.08,-1.48 0.2,-3.199 0.32,-5.152 0.08,-1.879 0.19,-5.547 0.31,-10.938 h 0.31 c 4.26,7.578 9.14,12.969 14.69,16.09 5.62,3.207 12.54,4.848 20.78,4.848 12.19,0 21.09,-3.047 26.72,-9.059 5.62,-6.058 8.44,-16.058 8.44,-30 V 45 Z" /><path
         id="path74"
         style="fill:#46c3e6;fill-opacity:1;fill-rule:nonzero;stroke:none"
         d="m 1581.37,1.41016 c -12.19,0 -21.88,2.41797 -29.07,7.17968 C 1545.2,13.2813 1540.62,20 1538.55,28.75 l 18.6,2.6602 c 1.25,-5.0821 3.94,-8.9883 8.12,-11.7188 4.14,-2.8125 9.69,-4.2226 16.57,-4.2226 18.32,0 27.5,10.7812 27.5,32.3398 v 17.8125 h -0.16 c -3.44,-7.1016 -8.24,-12.4609 -14.38,-16.0898 -6.05,-3.5508 -13.12,-5.3125 -21.25,-5.3125 -13.67,0 -23.71,4.4531 -30.15,13.4414 -6.37,9.0586 -9.53,23.2812 -9.53,42.6488 0,19.57 3.43,33.992 10.31,43.281 6.87,9.379 17.34,14.07 31.41,14.07 7.81,0 14.57,-1.84 20.31,-5.469 5.82,-3.562 10.31,-8.601 13.44,-15.16 h 0.31 c 0,1.949 0.08,5.469 0.31,10.469 0.31,5.078 0.63,7.891 0.94,8.441 h 17.5 c -0.43,-3.671 -0.63,-11.332 -0.63,-22.972 V 48.1211 c 0,-31.1328 -15.47,-46.71094 -46.4,-46.71094 z m 27.97,99.05884 c 0,9.062 -1.25,16.801 -3.75,23.281 -2.43,6.559 -5.86,11.559 -10.32,15 -4.49,3.441 -9.53,5.16 -15.15,5.16 -9.5,0 -16.37,-3.441 -20.63,-10.32 -4.29,-6.789 -6.4,-17.809 -6.4,-33.121 0,-15.2385 1.95,-26.1682 5.93,-32.8088 4.07,-6.5704 10.98,-9.8516 20.78,-9.8516 5.82,0 10.98,1.7227 15.47,5.1602 4.46,3.4414 7.89,8.3203 10.32,14.6914 2.5,6.3203 3.75,13.9414 3.75,22.8088 z" /><path
         id="path76"
         style="fill:#46c3e6;fill-opacity:1;fill-rule:nonzero;stroke:none"
         d="m 1684.53,42.9688 c -11.17,0 -19.53,2.8906 -25.15,8.75 -5.63,5.9414 -8.44,13.9804 -8.44,24.2226 0,11.4375 3.75,20.2305 11.25,26.3986 7.58,6.25 19.84,9.57 36.72,10 l 24.84,0.32 v 6.09 c 0,8.949 -1.95,15.352 -5.78,19.219 -3.75,3.941 -9.77,5.941 -17.97,5.941 -8.36,0 -14.38,-1.41 -18.12,-4.219 -3.76,-2.812 -6.02,-7.312 -6.72,-13.441 l -19.22,1.871 c 3.12,19.891 17.89,29.848 44.37,29.848 13.95,0 24.42,-3.239 31.41,-9.688 7.07,-6.371 10.62,-15.582 10.62,-27.66 V 72.9688 c 0,-5.5469 0.71,-9.6875 2.19,-12.5 1.45,-2.7383 4.22,-4.0586 8.28,-4.0586 1.76,0 3.75,0.1914 5.94,0.6211 V 45.6211 c -4.61,-1.1328 -9.34,-1.7109 -14.22,-1.7109 -6.8,0 -11.72,1.75 -14.84,5.3086 -3.13,3.6328 -4.92,9.3007 -5.31,17.0312 h -0.63 c -4.69,-8.5508 -10.16,-14.6094 -16.41,-18.1289 -6.25,-3.4297 -13.86,-5.1523 -22.81,-5.1523 z m 4.22,13.75 c 6.76,0 12.73,1.5625 17.97,4.6914 5.31,3.1211 9.45,7.3398 12.5,12.6484 3.01,5.3906 4.53,10.9414 4.53,16.5625 v 9.0703 l -20.16,-0.3125 c -8.75,-0.1172 -15.39,-1.0195 -19.84,-2.6601 -4.49,-1.6797 -7.93,-4.2188 -10.31,-7.6602 -2.31,-3.4375 -3.44,-7.9297 -3.44,-13.4375 0,-6.0508 1.6,-10.7422 4.84,-14.0625 3.21,-3.2383 7.86,-4.8398 13.91,-4.8398 z" /><path
         id="path78"
         style="fill:#46c3e6;fill-opacity:1;fill-rule:nonzero;stroke:none"
         d="m 1815.16,1.41016 c -12.19,0 -21.88,2.41797 -29.07,7.17968 C 1778.98,13.2813 1774.41,20 1772.34,28.75 l 18.6,2.6602 c 1.25,-5.0821 3.94,-8.9883 8.12,-11.7188 4.14,-2.8125 9.69,-4.2226 16.56,-4.2226 18.33,0 27.5,10.7812 27.5,32.3398 v 17.8125 h -0.15 c -3.44,-7.1016 -8.24,-12.4609 -14.38,-16.0898 -6.05,-3.5508 -13.12,-5.3125 -21.25,-5.3125 -13.67,0 -23.71,4.4531 -30.15,13.4414 -6.37,9.0586 -9.53,23.2812 -9.53,42.6488 0,19.57 3.43,33.992 10.31,43.281 6.87,9.379 17.34,14.07 31.41,14.07 7.81,0 14.57,-1.84 20.31,-5.469 5.82,-3.562 10.31,-8.601 13.43,-15.16 h 0.32 c 0,1.949 0.08,5.469 0.31,10.469 0.31,5.078 0.63,7.891 0.94,8.441 h 17.5 c -0.43,-3.671 -0.63,-11.332 -0.63,-22.972 V 48.1211 c 0,-31.1328 -15.47,-46.71094 -46.4,-46.71094 z m 27.96,99.05884 c 0,9.062 -1.24,16.801 -3.74,23.281 -2.43,6.559 -5.86,11.559 -10.32,15 -4.49,3.441 -9.53,5.16 -15.15,5.16 -9.5,0 -16.37,-3.441 -20.63,-10.32 -4.3,-6.789 -6.4,-17.809 -6.4,-33.121 0,-15.2385 1.95,-26.1682 5.93,-32.8088 4.07,-6.5704 10.98,-9.8516 20.78,-9.8516 5.82,0 10.98,1.7227 15.47,5.1602 4.46,3.4414 7.89,8.3203 10.32,14.6914 2.5,6.3203 3.74,13.9414 3.74,22.8088 z" /><path
         id="path80"
         style="fill:#46c3e6;fill-opacity:1;fill-rule:nonzero;stroke:none"
         d="m 1889.88,197.191 h 18.4414 V 179.5308 H 1889.88 Z m 0,-41.25 h 18.4414 V 45 H 1889.88 Z" /><path
         id="path82"
         style="fill:#46c3e6;fill-opacity:1;fill-rule:nonzero;stroke:none"
         d="m 2007.11,45 v 70.309 c 0,7.269 -0.74,12.972 -2.19,17.031 -1.37,4.07 -3.67,6.961 -6.87,8.75 -3.13,1.762 -7.74,2.66 -13.75,2.66 -8.87,0 -15.9,-3.09 -21.1,-9.219 -5.11,-6.051 -7.65,-14.492 -7.65,-25.312 V 45 h -18.44 v 87.191 c 0,13.008 -0.23,20.93 -0.63,23.75 h 17.5 c 0,-0.32 0.04,-1.25 0.16,-2.82 0.08,-1.48 0.2,-3.199 0.31,-5.152 0.08,-1.879 0.2,-5.547 0.32,-10.938 h 0.31 c 4.26,7.578 9.14,12.969 14.69,16.09 5.62,3.207 12.53,4.848 20.78,4.848 12.18,0 21.09,-3.047 26.72,-9.059 5.62,-6.058 8.43,-16.058 8.43,-30 V 45 Z" /><path
         id="path84"
         style="fill:#46c3e6;fill-opacity:1;fill-rule:nonzero;stroke:none"
         d="m 2095.7,1.41016 c -12.18,0 -21.87,2.41797 -29.06,7.17968 C 2059.53,13.2813 2054.96,20 2052.89,28.75 l 18.59,2.6602 c 1.25,-5.0821 3.95,-8.9883 8.13,-11.7188 4.14,-2.8125 9.69,-4.2226 16.56,-4.2226 18.32,0 27.5,10.7812 27.5,32.3398 v 17.8125 h -0.15 c -3.44,-7.1016 -8.25,-12.4609 -14.38,-16.0898 -6.05,-3.5508 -13.12,-5.3125 -21.25,-5.3125 -13.67,0 -23.71,4.4531 -30.16,13.4414 -6.36,9.0586 -9.53,23.2812 -9.53,42.6488 0,19.57 3.44,33.992 10.32,43.281 6.87,9.379 17.34,14.07 31.4,14.07 7.81,0 14.57,-1.84 20.31,-5.469 5.82,-3.562 10.32,-8.601 13.44,-15.16 h 0.31 c 0,1.949 0.08,5.469 0.32,10.469 0.31,5.078 0.62,7.891 0.93,8.441 h 17.5 c -0.43,-3.671 -0.62,-11.332 -0.62,-22.972 V 48.1211 c 0,-31.1328 -15.47,-46.71094 -46.41,-46.71094 z m 27.97,99.05884 c 0,9.062 -1.25,16.801 -3.75,23.281 -2.42,6.559 -5.86,11.559 -10.31,15 -4.49,3.441 -9.53,5.16 -15.16,5.16 -9.49,0 -16.36,-3.441 -20.62,-10.32 -4.3,-6.789 -6.41,-17.809 -6.41,-33.121 0,-15.2385 1.96,-26.1682 5.94,-32.8088 4.06,-6.5704 10.98,-9.8516 20.78,-9.8516 5.82,0 10.98,1.7227 15.47,5.1602 4.45,3.4414 7.89,8.3203 10.31,14.6914 2.5,6.3203 3.75,13.9414 3.75,22.8088 z" /><path
         id="path86"
         style="fill:#46c3e6;fill-opacity:1;fill-rule:nonzero;stroke:none"
         d="m 2175.59,45 h 20 v 22.5 h -20 z" /><path
         id="path88"
         style="fill:#46c3e6;fill-opacity:1;fill-rule:nonzero;stroke:none"
         d="m 2392.23,45 -37.5,60 h -45 V 45 h -19.69 v 144.531 h 67.97 c 16.33,0 28.94,-3.672 37.81,-10.941 8.83,-7.301 13.28,-17.461 13.28,-30.469 0,-10.742 -3.2,-19.762 -9.53,-27.031 -6.25,-7.301 -14.84,-11.949 -25.78,-13.899 L 2414.73,45 Z m -2.82,102.969 c 0,8.441 -2.89,14.84 -8.59,19.222 -5.74,4.368 -13.98,6.559 -24.69,6.559 h -46.4 v -53.281 h 47.18 c 10.32,0 18.29,2.383 23.91,7.191 5.7,4.879 8.59,11.641 8.59,20.309 z" /><path
         id="path90"
         style="fill:#46c3e6;fill-opacity:1;fill-rule:nonzero;stroke:none"
         d="m 2452.89,96.5586 c 0,-12.7305 2.58,-22.5781 7.81,-29.5273 5.32,-6.8711 13.01,-10.3125 23.13,-10.3125 8.01,0 14.41,1.6015 19.22,4.8398 4.88,3.2109 8.16,7.2695 9.84,12.1914 l 16.25,-4.5312 c -6.68,-17.5 -21.8,-26.25 -45.31,-26.25 -16.37,0 -28.87,4.8828 -37.5,14.6914 -8.56,9.7617 -12.81,24.289 -12.81,43.5898 0,18.32 4.25,32.34 12.81,42.031 8.63,9.77 20.94,14.688 36.87,14.688 32.58,0 48.91,-19.649 48.91,-58.9104 v -2.5 z m 60.16,14.2224 c -1.06,11.641 -4.07,20.16 -9.07,25.469 -4.92,5.391 -11.95,8.129 -21.09,8.129 -8.98,0 -16.09,-3.051 -21.41,-9.07 -5.23,-5.93 -8.04,-14.137 -8.43,-24.528 z" /><path
         id="path92"
         style="fill:#46c3e6;fill-opacity:1;fill-rule:nonzero;stroke:none"
         d="m 2638.83,75.6211 c 0,-10.4219 -3.99,-18.5117 -11.88,-24.2109 -7.81,-5.6289 -18.86,-8.4414 -33.12,-8.4414 -13.75,0 -24.38,2.2304 -31.88,6.7226 -7.5,4.5703 -12.42,11.7188 -14.68,21.3984 l 16.4,3.129 c 1.56,-5.9375 4.77,-10.3086 9.69,-13.129 4.88,-2.7304 11.72,-4.0585 20.47,-4.0585 9.37,0 16.25,1.4101 20.62,4.2187 4.38,2.8906 6.57,7.2305 6.57,12.9688 0,4.371 -1.53,7.8906 -4.54,10.621 -3.04,2.8204 -7.89,5.0821 -14.53,6.879 l -13.28,3.4414 c -10.62,2.6914 -18.2,5.3518 -22.65,7.9608 -4.5,2.699 -7.97,5.938 -10.47,9.688 -2.5,3.75 -3.75,8.32 -3.75,13.75 0,10.203 3.59,17.89 10.78,23.132 7.19,5.309 17.69,7.969 31.56,7.969 12.19,0 21.88,-2.148 29.06,-6.41 7.27,-4.301 11.88,-11.211 13.75,-20.781 l -16.56,-2.028 c -1.05,4.879 -3.83,8.629 -8.28,11.25 -4.49,2.688 -10.47,4.059 -17.97,4.059 -8.36,0 -14.53,-1.328 -18.59,-3.91 -3.99,-2.5 -5.94,-6.32 -5.94,-11.399 0,-3.132 0.82,-5.742 2.5,-7.82 1.64,-1.992 4.1,-3.711 7.34,-5.152 3.21,-1.489 10,-3.438 20.32,-5.938 9.76,-2.5 16.79,-4.801 21.09,-6.871 4.26,-2.109 7.66,-4.3787 10.16,-6.8787 2.5,-2.5 4.41,-5.4297 5.78,-8.75 1.32,-3.3594 2.03,-7.1524 2.03,-11.4102 z" /><path
         id="path94"
         style="fill:#46c3e6;fill-opacity:1;fill-rule:nonzero;stroke:none"
         d="m 2754.45,100.941 c 0,-38.6715 -13.59,-57.9722 -40.78,-57.9722 -17.11,0 -28.59,6.4101 -34.53,19.2226 h -0.47 c 0.31,-0.5508 0.47,-6.332 0.47,-17.3516 V 1.41016 H 2660.7 V 133.281 c 0,11.449 -0.23,18.989 -0.62,22.66 h 17.81 c 0,-0.32 0.04,-1.332 0.16,-2.972 0.19,-1.68 0.35,-4.297 0.47,-7.809 0.19,-3.441 0.31,-5.781 0.31,-7.039 h 0.47 c 3.32,6.879 7.65,11.879 12.97,15 5.39,3.207 12.53,4.848 21.4,4.848 13.63,0 23.83,-4.61 30.63,-13.75 6.75,-9.18 10.15,-23.598 10.15,-43.278 z m -19.37,-0.32 c 0,15.399 -2.11,26.41 -6.25,32.969 -4.18,6.64 -10.78,10 -19.85,10 -7.42,0 -13.2,-1.559 -17.34,-4.68 -4.06,-3.051 -7.19,-7.82 -9.37,-14.379 -2.11,-6.48 -3.13,-14.922 -3.13,-25.3122 0,-14.6094 2.27,-25.3907 6.88,-32.3399 4.68,-6.8789 12.22,-10.3203 22.65,-10.3203 9.14,0 15.82,3.3203 20,10 4.26,6.7617 6.41,18.1328 6.41,34.0624 z" /><path
         id="path96"
         style="fill:#46c3e6;fill-opacity:1;fill-rule:nonzero;stroke:none"
         d="m 2871.37,100.621 c 0,-19.4921 -4.3,-33.9804 -12.82,-43.4296 -8.55,-9.4922 -20.93,-14.2226 -37.18,-14.2226 -16.25,0 -28.56,4.9218 -36.88,14.8398 -8.24,9.8906 -12.34,24.1406 -12.34,42.8124 0,38.207 16.6,57.348 49.84,57.348 16.88,0 29.3,-4.688 37.35,-14.059 8,-9.301 12.03,-23.711 12.03,-43.289 z m -19.38,0 c 0,15.32 -2.3,26.41 -6.87,33.289 -4.5,6.949 -12.11,10.469 -22.82,10.469 -10.85,0 -18.71,-3.559 -23.59,-10.629 -4.8,-7.109 -7.19,-18.129 -7.19,-33.129 0,-14.6796 2.39,-25.7421 7.19,-33.121 4.77,-7.3008 12.23,-10.9414 22.34,-10.9414 11.14,0 19.07,3.5195 23.75,10.6328 4.77,7.1875 7.19,18.3203 7.19,33.4296 z" /><path
         id="path98"
         style="fill:#46c3e6;fill-opacity:1;fill-rule:nonzero;stroke:none"
         d="m 2964.8,45 v 70.309 c 0,7.269 -0.74,12.972 -2.18,17.031 -1.37,4.07 -3.67,6.961 -6.88,8.75 -3.12,1.762 -7.73,2.66 -13.75,2.66 -8.87,0 -15.9,-3.09 -21.09,-9.219 -5.12,-6.051 -7.66,-14.492 -7.66,-25.312 V 45 h -18.44 v 87.191 c 0,13.008 -0.23,20.93 -0.62,23.75 h 17.5 c 0,-0.32 0.04,-1.25 0.16,-2.82 0.07,-1.48 0.19,-3.199 0.31,-5.152 0.08,-1.879 0.19,-5.547 0.31,-10.938 h 0.31 c 4.26,7.578 9.14,12.969 14.69,16.09 5.63,3.207 12.54,4.848 20.78,4.848 12.19,0 21.1,-3.047 26.72,-9.059 5.63,-6.058 8.44,-16.058 8.44,-30 V 45 Z" /><path
         id="path100"
         style="fill:#46c3e6;fill-opacity:1;fill-rule:nonzero;stroke:none"
         d="m 3094.53,75.6211 c 0,-10.4219 -3.98,-18.5117 -11.87,-24.2109 -7.82,-5.6289 -18.87,-8.4414 -33.13,-8.4414 -13.75,0 -24.37,2.2304 -31.87,6.7226 -7.5,4.5703 -12.43,11.7188 -14.69,21.3984 l 16.41,3.129 c 1.56,-5.9375 4.76,-10.3086 9.68,-13.129 4.89,-2.7304 11.72,-4.0585 20.47,-4.0585 9.38,0 16.25,1.4101 20.63,4.2187 4.37,2.8906 6.56,7.2305 6.56,12.9688 0,4.371 -1.52,7.8906 -4.53,10.621 -3.05,2.8204 -7.89,5.0821 -14.53,6.879 l -13.28,3.4414 c -10.63,2.6914 -18.21,5.3518 -22.66,7.9608 -4.49,2.699 -7.97,5.938 -10.47,9.688 -2.5,3.75 -3.75,8.32 -3.75,13.75 0,10.203 3.59,17.89 10.78,23.132 7.19,5.309 17.7,7.969 31.56,7.969 12.19,0 21.88,-2.148 29.07,-6.41 7.26,-4.301 11.87,-11.211 13.75,-20.781 l -16.57,-2.028 c -1.05,4.879 -3.82,8.629 -8.28,11.25 -4.49,2.688 -10.47,4.059 -17.97,4.059 -8.36,0 -14.53,-1.328 -18.59,-3.91 -3.98,-2.5 -5.94,-6.32 -5.94,-11.399 0,-3.132 0.82,-5.742 2.5,-7.82 1.64,-1.992 4.1,-3.711 7.35,-5.152 3.2,-1.489 10,-3.438 20.31,-5.938 9.76,-2.5 16.8,-4.801 21.09,-6.871 4.26,-2.109 7.66,-4.3787 10.16,-6.8787 2.5,-2.5 4.41,-5.4297 5.78,-8.75 1.33,-3.3594 2.03,-7.1524 2.03,-11.4102 z" /><path
         id="path102"
         style="fill:#46c3e6;fill-opacity:1;fill-rule:nonzero;stroke:none"
         d="m 3116.25,197.191 h 18.4414 V 179.5308 H 3116.25 Z m 0,-41.25 h 18.4414 V 45 H 3116.25 Z" /><path
         id="path104"
         style="fill:#46c3e6;fill-opacity:1;fill-rule:nonzero;stroke:none"
         d="m 3211.76,45 h -21.72 l -40.31,110.941 h 19.68 l 24.38,-72.191 c 0.82,-2.7305 3.16,-10.7812 7.03,-24.2187 l 3.59,11.8789 4.07,12.1796 25.15,72.3512 h 19.53 z" /><path
         id="path106"
         style="fill:#46c3e6;fill-opacity:1;fill-rule:nonzero;stroke:none"
         d="m 3282.23,96.5586 c 0,-12.7305 2.57,-22.5781 7.81,-29.5273 5.31,-6.8711 13.01,-10.3125 23.12,-10.3125 8.01,0 14.42,1.6015 19.22,4.8398 4.89,3.2109 8.17,7.2695 9.85,12.1914 l 16.25,-4.5312 c -6.68,-17.5 -21.8,-26.25 -45.32,-26.25 -16.36,0 -28.86,4.8828 -37.5,14.6914 -8.55,9.7617 -12.81,24.289 -12.81,43.5898 0,18.32 4.26,32.34 12.81,42.031 8.64,9.77 20.94,14.688 36.88,14.688 32.58,0 48.91,-19.649 48.91,-58.9104 v -2.5 z m 60.15,14.2224 c -1.05,11.641 -4.06,20.16 -9.06,25.469 -4.92,5.391 -11.95,8.129 -21.09,8.129 -8.99,0 -16.1,-3.051 -21.41,-9.07 -5.23,-5.93 -8.05,-14.137 -8.44,-24.528 z" /><path
         id="path108"
         style="fill:#46c3e6;fill-opacity:1;fill-rule:nonzero;stroke:none"
         d="m 3390.04,45 h 20 v 22.5 h -20 z" /></g></g></svg>